<svg width="24" height="24" viewBox="0 0 32 32" fill="none" xmlns="http://www.w3.org/2000/svg">
<path d="M16 18C18.2091 18 20 16.2091 20 14C20 11.7909 18.2091 10 16 10C13.7909 10 12 11.7909 12 14C12 16.2091 13.7909 18 16 18Z" stroke="black" stroke-width="1.5" stroke-linecap="round" stroke-linejoin="round"/>
<path d="M24.8 7.28798H22.4L21.6843 5.81716C21.4185 5.27113 21.01 4.81192 20.5045 4.49097C19.999 4.17003 19.4166 4.00002 18.8224 4H13.1776C12.5834 4.00002 12.001 4.17003 11.4955 4.49097C10.99 4.81192 10.5815 5.27113 10.3157 5.81716L9.6 7.28798H7.2C6.35131 7.28798 5.53737 7.6344 4.93726 8.25101C4.33714 8.86763 4 9.70394 4 10.576V18.7959C4 19.668 4.33714 20.5043 4.93726 21.1209C5.53737 21.7375 6.35131 22.0839 7.2 22.0839H11.7333L15.3344 27.634C15.4075 27.7466 15.5064 27.8389 15.6225 27.9028C15.7387 27.9666 15.8683 28 16 28C16.1317 28 16.2613 27.9666 16.3775 27.9028C16.4936 27.8389 16.5925 27.7466 16.6656 27.634L20.2667 22.0839H24.8C25.6487 22.0839 26.4626 21.7375 27.0627 21.1209C27.6629 20.5043 28 19.668 28 18.7959V10.576C28 9.70394 27.6629 8.86763 27.0627 8.25101C26.4626 7.6344 25.6487 7.28798 24.8 7.28798V7.28798Z" stroke="black" stroke-width="1.5" stroke-linecap="round" stroke-linejoin="round"/>
</svg>
