<svg width="24" height="24" viewBox="0 0 32 32" fill="none" xmlns="http://www.w3.org/2000/svg">
<path d="M26.8691 5.13094C26.5058 4.76917 26.0745 4.48297 25.5999 4.28887C25.1254 4.09477 24.6172 3.99662 24.1045 4.00009C23.5918 4.00356 23.085 4.10858 22.6131 4.30909C22.1413 4.5096 21.7139 4.80161 21.3555 5.16827L5.88904 20.6348L4 28L11.3652 26.111L26.8317 10.6445C27.1984 10.2861 27.4904 9.85872 27.6909 9.38688C27.8914 8.91504 27.9964 8.40815 27.9999 7.89549C28.0034 7.38283 27.9052 6.87456 27.7111 6.40005C27.517 5.92554 27.2308 5.4942 26.8691 5.13094V5.13094Z" stroke="black" stroke-width="1.5" stroke-linecap="round" stroke-linejoin="round"/>
<path d="M21 6.00035L26 11.0004" stroke="black" stroke-width="1.5" stroke-linecap="round" stroke-linejoin="round"/>
<path d="M19 8.00035L24 13.0004" stroke="black" stroke-width="1.5" stroke-linecap="round" stroke-linejoin="round"/>
<path d="M6 21.0004L11 26.0004" stroke="black" stroke-width="1.5" stroke-linecap="round" stroke-linejoin="round"/>
</svg>
