<svg width="24" height="24" viewBox="0 0 32 32" fill="none" xmlns="http://www.w3.org/2000/svg">
<path d="M9.81074 12.5241L5.98535 9.46816M9.8214 19.5622L6.15584 22.863M20.1894 21.7663L23.4607 25.4397M22.5123 18.902H17.5787V14.4619H28V16.6554C27.8488 19.4181 26.7468 22.0437 24.8807 24.0877C23.0145 26.1317 20.4988 27.4685 17.7595 27.8718C15.0202 28.2751 12.2255 27.7201 9.8487 26.3008C7.47187 24.8815 5.65888 22.6851 4.71667 20.0834C3.77446 17.4817 3.76091 14.6346 4.67832 12.0241C5.59574 9.41352 7.38775 7.19997 9.75097 5.75815C12.1142 4.31633 14.9034 3.73483 17.6464 4.1121C20.3895 4.48937 22.9178 5.80223 24.8033 7.82841L21.1804 11.1611C20.5192 10.4532 19.719 9.88929 18.8297 9.50455C17.9405 9.1198 16.9814 8.92255 16.0124 8.92513C14.7326 8.9253 13.4766 9.27076 12.377 9.92502C11.2775 10.5793 10.3751 11.5181 9.76512 12.6423C9.15518 13.7665 8.86033 15.0345 8.9117 16.3122C8.96307 17.59 9.35875 18.8302 10.057 19.9019C10.7552 20.9736 11.73 21.8371 12.8786 22.4011C14.0272 22.9651 15.3068 23.2088 16.5825 23.1064C17.8581 23.004 19.0824 22.5593 20.1262 21.8193C21.1699 21.0793 21.9943 20.0714 22.5123 18.902Z" stroke="black" stroke-width="1.5" stroke-linecap="round" stroke-linejoin="round"/>
</svg>
