<svg width="24" height="24" viewBox="0 0 32 32" fill="none" xmlns="http://www.w3.org/2000/svg">
<path d="M15.163 17.2975C14.4182 16.6055 13.9999 15.6671 14 14.6886C14.0001 13.7101 14.4186 12.7717 15.1635 12.0798C15.9084 11.388 16.9186 10.9994 17.9719 10.9995C19.0253 10.9996 20.0354 11.3884 20.7801 12.0803L25.8353 16.7813C26.2045 17.1238 26.4974 17.5305 26.6973 17.9781C26.8971 18.4258 27 18.9057 27 19.3904C27 19.8751 26.8971 20.355 26.6973 20.8027C26.4974 21.2504 26.2045 21.6571 25.8353 21.9995L23.5828 19.907C22.8063 19.2732 21.8079 18.9236 20.7742 18.9236C19.7405 18.9236 18.7422 19.2732 17.9657 19.907L15.163 17.2975Z" stroke="black" stroke-width="1.5" stroke-linecap="round" stroke-linejoin="round"/>
<path d="M15.9263 6.7995L13.1268 4L7.52783 9.599L10.3273 12.3985L15.9263 6.7995Z" stroke="black" stroke-width="1.5" stroke-linecap="round" stroke-linejoin="round"/>
<path d="M15 7.99948L18 10.9995" stroke="black" stroke-width="1.5" stroke-linecap="round" stroke-linejoin="round"/>
<path d="M12 12L14 14" stroke="black" stroke-width="1.5" stroke-linecap="round" stroke-linejoin="round"/>
<path d="M14.387 16L5.59144 24.6221C5.21275 24.9932 5 25.4965 5 26.0213C5 26.5461 5.21275 27.0494 5.59144 27.4204C5.97013 27.7915 6.48374 28 7.01929 28C7.55484 28 8.06846 27.7915 8.44715 27.4204L17 19.0383" stroke="black" stroke-width="1.5" stroke-linecap="round" stroke-linejoin="round"/>
</svg>
