<svg width="24" height="24" viewBox="0 0 32 32" fill="none" xmlns="http://www.w3.org/2000/svg">
<path d="M7 18V27H13.5455V20.4545C13.5455 20.0206 13.7179 19.6043 14.0247 19.2975C14.3316 18.9906 14.7478 18.8182 15.1818 18.8182H16.8182C17.2522 18.8182 17.6684 18.9906 17.9753 19.2975C18.2821 19.6043 18.4545 20.0206 18.4545 20.4545V27H25V18" stroke="black" stroke-width="2" stroke-linecap="round" stroke-linejoin="round"/>
<path d="M4 17L14.8683 5.49641C15.0169 5.33903 15.1933 5.21419 15.3875 5.12902C15.5817 5.04384 15.7898 5 16 5C16.2102 5 16.4183 5.04384 16.6125 5.12902C16.8067 5.21419 16.9831 5.33903 17.1317 5.49641L28 17" stroke="black" stroke-width="2" stroke-linecap="round" stroke-linejoin="round"/>
<path d="M21 9.42857V8H25V13" stroke="black" stroke-width="2" stroke-linecap="round" stroke-linejoin="round"/>
</svg>
