<svg width="24" height="24" viewBox="0 0 32 32" fill="none" xmlns="http://www.w3.org/2000/svg">
<path d="M10.5556 11.2484H11.911C12.1738 11.2484 12.4323 11.1842 12.6625 11.0618C12.8926 10.9393 13.0868 10.7627 13.227 10.5483L13.7807 9.70012C13.9209 9.4857 14.1151 9.30903 14.3453 9.1866C14.5754 9.06417 14.8339 8.99998 15.0967 9H16.9033C17.1661 8.99998 17.4246 9.06417 17.6547 9.1866C17.8849 9.30903 18.0791 9.4857 18.2193 9.70012L18.773 10.5483C18.9132 10.7627 19.1074 10.9393 19.3375 11.0618C19.5677 11.1842 19.8262 11.2484 20.089 11.2484H21.4444C21.857 11.2484 22.2527 11.4064 22.5444 11.6878C22.8361 11.9691 23 12.3507 23 12.7486V19.4417C22.9989 19.8547 22.8283 20.2504 22.5256 20.5424C22.2228 20.8344 21.8125 20.9989 21.3843 21H10.6157C10.1875 20.9989 9.7772 20.8344 9.47444 20.5424C9.17167 20.2504 9.0011 19.8547 9 19.4417V12.7486C9 12.3507 9.16389 11.9691 9.45561 11.6878C9.74733 11.4064 10.143 11.2484 10.5556 11.2484V11.2484Z" stroke="black" stroke-width="1.5" stroke-linecap="round" stroke-linejoin="round"/>
<path d="M16 18C17.1046 18 18 16.8807 18 15.5C18 14.1193 17.1046 13 16 13C14.8954 13 14 14.1193 14 15.5C14 16.8807 14.8954 18 16 18Z" stroke="black" stroke-width="1.5" stroke-linecap="round" stroke-linejoin="round"/>
<path d="M4 9C4 7.93913 4.31607 6.92172 4.87868 6.17157C5.44129 5.42143 6.20435 5 7 5" stroke="black" stroke-width="1.5" stroke-linecap="round" stroke-linejoin="round"/>
<path d="M4 24C4 24.7956 4.31607 25.5587 4.87868 26.1213C5.44129 26.6839 6.20435 27 7 27" stroke="black" stroke-width="1.5" stroke-linecap="round" stroke-linejoin="round"/>
<path d="M28 9C28 7.93913 27.6839 6.92172 27.1213 6.17157C26.5587 5.42143 25.7956 5 25 5" stroke="black" stroke-width="1.5" stroke-linecap="round" stroke-linejoin="round"/>
<path d="M28 24C28 24.7956 27.6839 25.5587 27.1213 26.1213C26.5587 26.6839 25.7956 27 25 27" stroke="black" stroke-width="1.5" stroke-linecap="round" stroke-linejoin="round"/>
</svg>
