<svg width="24" height="24" viewBox="0 0 32 32" fill="none" xmlns="http://www.w3.org/2000/svg">
<path d="M19.1137 5.10097L16.6446 7.57007C16.0366 8.17812 16.0366 9.16396 16.6446 9.772L22.228 15.3554C22.8361 15.9634 23.8219 15.9634 24.4299 15.3554L26.899 12.8863C27.5071 12.2782 27.5071 11.2924 26.899 10.6843L21.3157 5.10097C20.7076 4.49292 19.7218 4.49292 19.1137 5.10097Z" stroke="black" stroke-width="2" stroke-linecap="round" stroke-linejoin="round"/>
<path d="M19 12.8285L15 16.8285" stroke="black" stroke-width="2" stroke-linecap="round" stroke-linejoin="round"/>
<path d="M16.0468 22.4876C16.6571 21.9325 17 21.1798 17 20.395C17 19.6102 16.6571 18.8575 16.0468 18.3025L13.8025 16.2622C13.6513 16.1247 13.4718 16.0156 13.2743 15.9412C13.0767 15.8668 12.8649 15.8285 12.6511 15.8285C12.4372 15.8285 12.2254 15.8668 12.0279 15.9412C11.8303 16.0156 11.6508 16.1247 11.4996 16.2622L6.47716 20.8281C6.32589 20.9656 6.20589 21.1287 6.12401 21.3083C6.04214 21.488 6 21.6805 6 21.8749C6 22.0693 6.04214 22.2618 6.12401 22.4414C6.20589 22.621 6.32589 22.7842 6.47716 22.9216L8.72143 24.9619C9.33196 25.5168 10.1599 25.8285 11.0232 25.8285C11.8865 25.8285 12.7145 25.5168 13.325 24.9619L16.0468 22.4876Z" stroke="black" stroke-width="2" stroke-linecap="round" stroke-linejoin="round"/>
<path d="M14.5017 16.3896C14.1761 15.95 14 15.4147 14 14.8644C14 14.3141 14.1761 13.7787 14.5017 13.3392C14.6434 13.1785 14.8168 13.0499 15.0106 12.9619C15.2044 12.8739 15.4142 12.8285 15.6265 12.8285C15.8387 12.8285 16.0486 12.8739 16.2424 12.9619C16.4362 13.0499 16.6096 13.1785 16.7513 13.3392L20.8117 17.4684C21.0663 17.7273 21.2683 18.0346 21.406 18.3729C21.5438 18.7112 21.6148 19.0738 21.6148 19.4399C21.6148 19.8061 21.5438 20.1687 21.406 20.5069C21.2683 20.8452 21.0663 21.1526 20.8117 21.4115C20.6723 21.5531 20.5617 21.7213 20.4863 21.9064C20.4109 22.0915 20.3721 22.2899 20.3721 22.4903C20.3721 22.6907 20.4109 22.8891 20.4863 23.0742C20.5617 23.2593 20.6723 23.4275 20.8117 23.5691L25 27.8285" stroke="black" stroke-width="2" stroke-linecap="round" stroke-linejoin="round"/>
<path d="M8 23.8285L4 27.8285" stroke="black" stroke-width="2" stroke-linecap="round" stroke-linejoin="round"/>
<path d="M11 25.8285L13 27.8285" stroke="black" stroke-width="2" stroke-linecap="round" stroke-linejoin="round"/>
</svg>
