<svg width="24" height="24" viewBox="0 0 32 32" fill="none" xmlns="http://www.w3.org/2000/svg">
<path d="M14.4485 5.80189C14.6445 6.01893 14.8838 6.19243 15.1511 6.31119C15.4183 6.42994 15.7075 6.4913 15.9999 6.4913C16.2923 6.4913 16.5815 6.42994 16.8487 6.31119C17.116 6.19243 17.3553 6.01893 17.5513 5.80189L18.5542 4.69012C18.8434 4.36955 19.2248 4.1464 19.6459 4.05132C20.0671 3.95624 20.5073 3.9939 20.9062 4.15913C21.3051 4.32436 21.643 4.60904 21.8735 4.97407C22.1041 5.33911 22.2159 5.76657 22.1937 6.19773L22.1169 7.69146C22.102 7.98364 22.1486 8.27569 22.2537 8.54875C22.3587 8.8218 22.5198 9.0698 22.7267 9.27672C22.9335 9.48364 23.1814 9.64488 23.4544 9.75005C23.7274 9.85521 24.0195 9.90195 24.3117 9.88725L25.8054 9.81043C26.2363 9.78893 26.6633 9.90129 27.0278 10.1321C27.3923 10.3629 27.6765 10.7008 27.8413 11.0995C28.0061 11.4982 28.0435 11.9382 27.9483 12.3589C27.8532 12.7797 27.6302 13.1608 27.3099 13.4498L26.1981 14.4527C25.981 14.6487 25.8075 14.8881 25.6888 15.1553C25.57 15.4225 25.5086 15.7117 25.5086 16.0041C25.5086 16.2965 25.57 16.5857 25.6888 16.8529C25.8075 17.1201 25.981 17.3595 26.1981 17.5555L27.3099 18.5584C27.6304 18.8476 27.8536 19.2289 27.9487 19.6501C28.0438 20.0712 28.0061 20.5114 27.8409 20.9103C27.6756 21.3092 27.3909 21.6471 27.0259 21.8776C26.6609 22.1081 26.2334 22.22 25.8022 22.1978L24.3085 22.1209C24.0163 22.1061 23.7243 22.1527 23.4513 22.2577C23.1783 22.3628 22.9303 22.5239 22.7235 22.7308C22.5167 22.9376 22.3555 23.1855 22.2505 23.4585C22.1454 23.7315 22.0988 24.0235 22.1137 24.3157L22.1905 25.8094C22.2112 26.2396 22.0985 26.6656 21.8678 27.0293C21.6372 27.393 21.2998 27.6766 20.9018 27.8412C20.5038 28.0059 20.0647 28.0436 19.6445 27.9492C19.2243 27.8548 18.8435 27.6329 18.5542 27.3138L17.5513 26.202C17.3553 25.985 17.116 25.8115 16.8487 25.6927C16.5815 25.574 16.2923 25.5126 15.9999 25.5126C15.7075 25.5126 15.4183 25.574 15.1511 25.6927C14.8838 25.8115 14.6445 25.985 14.4485 26.202L13.4456 27.3138C13.1562 27.6319 12.7757 27.8531 12.356 27.947C11.9363 28.0409 11.4978 28.0031 11.1004 27.8387C10.703 27.6743 10.3659 27.3913 10.1353 27.0284C9.9046 26.6654 9.79151 26.2401 9.81144 25.8105L9.88826 24.3167C9.90367 24.024 9.85728 23.7312 9.75211 23.4575C9.64693 23.1839 9.48533 22.9354 9.27782 22.7283C9.0703 22.5212 8.82151 22.3601 8.54763 22.2554C8.27375 22.1508 7.98091 22.105 7.68815 22.1209L6.19438 22.1978C5.76349 22.2193 5.3365 22.1069 4.972 21.8761C4.6075 21.6453 4.32335 21.3074 4.15853 20.9087C3.99372 20.51 3.95632 20.07 4.05146 19.6492C4.14661 19.2285 4.36964 18.8474 4.68995 18.5584L5.80174 17.5555C6.01878 17.3595 6.19229 17.1201 6.31105 16.8529C6.42981 16.5857 6.49117 16.2965 6.49117 16.0041C6.49117 15.7117 6.42981 15.4225 6.31105 15.1553C6.19229 14.8881 6.01878 14.6487 5.80174 14.4527L4.68995 13.4498C4.37181 13.1604 4.15069 12.7799 4.05675 12.3602C3.96281 11.9405 4.00062 11.5021 4.16502 11.1047C4.32943 10.7073 4.61242 10.3703 4.97541 10.1396C5.33839 9.90893 5.7637 9.79584 6.19332 9.81577L7.68709 9.89259C7.97979 9.90766 8.27239 9.86104 8.54591 9.75575C8.81944 9.65046 9.06777 9.48885 9.27482 9.28141C9.48186 9.07397 9.64299 8.82532 9.74775 8.5516C9.85251 8.27788 9.89856 7.9852 9.88292 7.69253L9.81144 6.19773C9.79151 5.76812 9.9046 5.34282 10.1353 4.97984C10.3659 4.61687 10.703 4.33388 11.1004 4.16948C11.4978 4.00508 11.9363 3.96727 12.356 4.06121C12.7757 4.15515 13.1562 4.37626 13.4456 4.69439L14.4485 5.80189Z" stroke="black" stroke-width="2" stroke-linecap="round" stroke-linejoin="round"/>
<circle cx="16" cy="16" r="3" stroke="black" stroke-width="2"/>
</svg>
