<svg width="32" height="30" viewBox="0 0 32 30" fill="none" xmlns="http://www.w3.org/2000/svg">
<path d="M13.2065 22.5922C12.6735 22.4999 4.84645 25.3082 4.84645 25.3082C6.76925 23.5351 7.762 21.8235 7.5321 20.1221C6.46287 19.339 5.58923 18.3277 4.9773 17.1647C4.36537 16.0016 4.03117 14.7173 4 13.4088C4 8.21245 9.22501 4 15.7563 4C22.2875 4 27.5125 8.21245 27.5125 13.4088C27.5125 18.6052 22.2457 22.8484 15.7563 22.8484C14.9002 22.8377 14.0469 22.752 13.2065 22.5922V22.5922Z" stroke="#231F20" stroke-width="1.5" stroke-linecap="round" stroke-linejoin="round"/>
<path d="M17.7523 7.26953C21.3053 7.98698 23.9387 10.5493 23.9387 13.6138C23.9065 14.5925 23.6366 15.5495 23.1513 16.4052C22.666 17.2609 21.9793 17.9905 21.1485 18.5335" stroke="#231F20" stroke-width="1.5" stroke-linecap="round" stroke-linejoin="round"/>
</svg>
