<svg width="32" height="31" viewBox="0 0 32 31" fill="none" xmlns="http://www.w3.org/2000/svg">
<path d="M19 6C19 7.65685 17.6569 9 16 9C14.3431 9 13 7.65685 13 6C13 4.34315 14.3431 3 16 3C17.6569 3 19 4.34315 19 6Z" fill="#3B4249"/>
<path d="M19 15.5C19 17.1569 17.6569 18.5 16 18.5C14.3431 18.5 13 17.1569 13 15.5C13 13.8431 14.3431 12.5 16 12.5C17.6569 12.5 19 13.8431 19 15.5Z" fill="#3B4249"/>
<path d="M19 25C19 26.6569 17.6569 28 16 28C14.3431 28 13 26.6569 13 25C13 23.3431 14.3431 22 16 22C17.6569 22 19 23.3431 19 25Z" fill="#3B4249"/>
</svg>
